<?xml version="1.0" encoding="UTF-8"?><svg id="uuid-45aaa49e-c309-4692-aaad-d30996227683" xmlns="http://www.w3.org/2000/svg" width="900" height="900" viewBox="0 0 900 900"><polygon points="345.44 325.22 255.44 325.22 269.84 174.62 331.05 174.62 345.44 325.22" style="fill:#232323; stroke-width:0px;"/><polygon points="697.59 758.71 593.05 758.71 565.32 608.11 725.32 608.11 697.59 758.71" style="fill:#baa300; stroke-width:0px;"/><polygon points="773.4 286.12 851.8 286.12 872.6 420.91 752.6 420.91 773.4 286.12" style="fill:#baa300; stroke-width:0px;"/><polygon points="126.6 555.69 48.2 555.69 27.4 420.91 147.4 420.91 126.6 555.69" style="fill:#baa300; stroke-width:0px;"/><polygon points="321.44 124.62 330.82 174.62 197.39 174.62 206.77 124.62 321.44 124.62" style="fill:#baa300; stroke-width:0px;"/><polygon points="663.75 322.4 633.14 307.91 622.58 302.91 544.6 302.91 517.57 302.91 476.56 302.91 433.56 336.11 501.95 336.11 536.69 336.11 559.53 336.11 598.36 350.56 618.12 357.92 654.14 371.33 697.08 338.17 663.75 322.4" style="fill:#21a1ea; stroke-width:0px;"/><polygon points="697.08 338.17 654.14 371.33 725.3 397.82 635.2 502.16 264.8 502.16 174.7 397.82 340.47 336.11 433.56 336.11 476.56 302.91 277.42 302.91 27.4 421.27 177.58 608.11 722.42 608.11 872.6 421.27 697.08 338.17" style="fill:#232323; stroke-width:0px;"/></svg>